<svg width="382" height="73" viewBox="0 0 382 73" fill="none" xmlns="http://www.w3.org/2000/svg">
<path d="M56.8556 5H10.3374C4.6282 5 0 9.6282 0 15.3374V61.8556C0 67.5648 4.6282 72.193 10.3374 72.193H56.8556C62.5648 72.193 67.193 67.5648 67.193 61.8556V15.3374C67.193 9.6282 62.5648 5 56.8556 5Z" fill="#C2000B"/>
<path d="M37.2511 22.0772L58.5584 38.5998L37.2511 55.1223L14.1743 49.6522L7.81324 38.5998L14.1743 27.5473L37.2511 22.0772M37.656 20.2144L13.0591 26.0458L5.83203 38.5998L13.0591 51.1537L37.656 56.9852L61.3683 38.5998L37.656 20.2144V20.2144Z" fill="white"/>
<path d="M33.1259 23.0549L49.4367 37.4155L33.1446 52.2684L14.13 49.5645L7.95582 38.5806L14.1736 27.5406L33.1135 23.0486M33.5807 21.1733L13.0397 26.0454L5.97461 38.5806L13.0397 51.147L33.6929 54.0814L51.9973 37.3906L33.5745 21.1733H33.5807Z" fill="white"/>
<path d="M28.902 24.0519L43.5056 36.7554L30.9579 49.4276H14.0491L7.81264 38.5933L14.1737 27.5409L28.902 24.0457M29.363 22.1704L13.0523 26.0394L5.8252 38.5933L13.0523 51.1472H31.6744L46.0164 36.6619L29.363 22.1766V22.1704Z" fill="white"/>
<path d="M24.5785 25.0805L37.1449 37.2606L28.7279 46.7928L13.9435 49.2538L7.80678 38.5939L14.1678 27.5415L24.5723 25.0743M25.0894 23.1865L13.0464 26.04L5.81934 38.5939L13.0464 51.1478L29.6063 48.3878L39.5124 37.1671L25.0894 23.1865V23.1865Z" fill="white"/>
<path d="M172.296 65L173.276 59.358L175.964 65.434L178.68 59.372L179.632 65H181.088L179.324 54.962L176.048 62.214L172.8 54.962L170.84 65H172.296ZM188.194 55.662H183.042V65H188.194V63.656H184.47V60.716H188.082V59.372H184.47V57.006H188.194V55.662ZM190.042 55.662V65H191.974C193.276 65 194.298 64.874 195.39 64.104C196.622 63.236 197.266 61.892 197.266 60.338C197.266 58.784 196.608 57.426 195.474 56.572C194.438 55.802 193.304 55.662 192.002 55.662H190.042ZM191.47 57.006H192.086C192.772 57.006 193.766 57.062 194.578 57.65C195.25 58.14 195.838 59.106 195.838 60.338C195.838 61.612 195.208 62.508 194.564 62.998C193.752 63.6 192.786 63.656 192.086 63.656H191.47V57.006ZM199.052 55.662V65H200.48V55.662H199.052ZM209.632 56.166C208.82 55.648 207.994 55.494 207.14 55.494C205.852 55.494 204.732 55.802 203.766 56.712C202.982 57.454 202.268 58.644 202.268 60.366C202.268 61.682 202.674 62.872 203.766 63.894C204.312 64.412 205.376 65.182 207.07 65.182C207.714 65.182 208.694 65.042 209.632 64.482V62.788C209.1 63.292 208.232 63.866 207.112 63.866C205.124 63.866 203.696 62.34 203.696 60.366C203.696 58.308 205.068 56.81 207.098 56.81C207.63 56.81 208.596 56.908 209.632 57.846V56.166ZM217.729 65H219.269L214.845 55.116L210.197 65H211.737L212.759 62.746H216.749L217.729 65ZM213.347 61.402L214.789 58.238L216.175 61.402H213.347ZM220.448 55.662V65H224.62V63.656H221.876V55.662H220.448ZM229.225 55.662V65H233.397V63.656H230.653V55.662H229.225ZM241.34 65H242.88L238.456 55.116L233.808 65H235.348L236.37 62.746H240.36L241.34 65ZM236.958 61.402L238.4 58.238L239.786 61.402H236.958ZM244.059 55.662V65H246.397C247.111 65 248.273 64.874 249.015 64.09C249.463 63.614 249.631 63.082 249.631 62.41C249.631 61.836 249.519 61.192 249.015 60.66C248.553 60.184 247.979 60.03 247.811 59.988C248.021 59.89 248.301 59.708 248.511 59.344C248.735 58.98 248.791 58.602 248.791 58.238C248.791 57.468 248.553 56.866 248.049 56.39C247.433 55.816 246.677 55.662 245.473 55.662H244.059ZM245.487 57.006H245.977C246.383 57.006 246.789 57.048 247.111 57.356C247.405 57.636 247.447 57.972 247.447 58.252C247.447 58.574 247.405 59.008 247.083 59.316C246.747 59.638 246.271 59.68 245.921 59.68H245.487V57.006ZM245.487 60.856H246.383C246.887 60.856 247.461 60.898 247.853 61.276C248.091 61.514 248.231 61.878 248.231 62.256C248.231 62.676 248.049 63.068 247.769 63.292C247.405 63.586 246.761 63.656 246.355 63.656H245.487V60.856ZM255.415 55.494C252.615 55.494 250.557 57.594 250.557 60.338C250.557 63.082 252.615 65.182 255.415 65.182C258.215 65.182 260.273 63.082 260.273 60.338C260.273 57.594 258.215 55.494 255.415 55.494ZM255.415 63.866C253.413 63.866 251.985 62.41 251.985 60.338C251.985 58.266 253.413 56.81 255.415 56.81C257.417 56.81 258.845 58.266 258.845 60.338C258.845 62.41 257.417 63.866 255.415 63.866ZM262.065 55.662V65H263.493V61.178H263.745L266.419 65H268.141L265.229 61.01C266.475 60.73 267.301 59.75 267.301 58.406C267.301 58 267.217 56.894 266.195 56.208C265.593 55.802 264.865 55.662 263.731 55.662H262.065ZM263.493 56.978H263.983C264.683 56.978 265.929 57.104 265.929 58.42C265.929 59.904 264.333 59.946 263.941 59.946H263.493V56.978ZM276.012 65H277.552L273.128 55.116L268.48 65H270.02L271.042 62.746H275.032L276.012 65ZM271.63 61.402L273.072 58.238L274.458 61.402H271.63ZM282.903 57.006V55.662H277.191V57.006H279.333V65H280.761V57.006H282.903ZM288.296 55.494C285.496 55.494 283.438 57.594 283.438 60.338C283.438 63.082 285.496 65.182 288.296 65.182C291.096 65.182 293.154 63.082 293.154 60.338C293.154 57.594 291.096 55.494 288.296 55.494ZM288.296 63.866C286.294 63.866 284.866 62.41 284.866 60.338C284.866 58.266 286.294 56.81 288.296 56.81C290.298 56.81 291.726 58.266 291.726 60.338C291.726 62.41 290.298 63.866 288.296 63.866ZM294.946 55.662V65H296.374V61.178H296.626L299.3 65H301.022L298.11 61.01C299.356 60.73 300.182 59.75 300.182 58.406C300.182 58 300.098 56.894 299.076 56.208C298.474 55.802 297.746 55.662 296.612 55.662H294.946ZM296.374 56.978H296.864C297.564 56.978 298.81 57.104 298.81 58.42C298.81 59.904 297.214 59.946 296.822 59.946H296.374V56.978ZM304.371 65H305.799V60.968L308.865 55.662H307.241L305.085 59.4L302.929 55.662H301.305L304.371 60.968V65ZM319.651 60.618L318.587 61.822L316.935 59.806C317.551 59.344 317.873 59.022 318.097 58.728C318.265 58.504 318.503 58.112 318.503 57.51C318.503 56.516 317.747 55.494 316.263 55.494C314.723 55.494 314.051 56.586 314.051 57.65C314.051 58.546 314.653 59.26 314.975 59.582C314.891 59.638 314.485 59.918 314.233 60.1C313.519 60.632 312.889 61.276 312.889 62.508C312.889 64.02 313.939 65.182 315.689 65.182C316.571 65.182 317.159 64.944 317.733 64.538C318.027 64.328 318.307 64.076 318.517 63.852L319.441 65H321.177L319.455 62.844L320.561 61.57L319.651 60.618ZM317.663 62.844C317.495 63.012 317.089 63.404 316.795 63.614C316.459 63.838 316.137 63.978 315.745 63.978C314.863 63.978 314.289 63.32 314.289 62.564C314.289 62.228 314.401 61.794 314.793 61.374C315.059 61.08 315.507 60.772 315.815 60.604L317.663 62.844ZM316.109 58.812L315.689 58.308C315.535 58.126 315.367 57.818 315.367 57.496C315.367 57.02 315.689 56.67 316.263 56.67C316.921 56.67 317.187 57.104 317.187 57.51C317.187 57.86 316.963 58.196 316.627 58.434L316.109 58.812ZM330.751 57.062C330.555 56.67 330.289 56.348 330.037 56.124C329.743 55.872 329.169 55.494 328.161 55.494C326.411 55.494 325.431 56.698 325.431 57.958C325.431 59.358 326.565 60.002 327.335 60.324L328.231 60.702C328.847 60.954 329.575 61.346 329.575 62.298C329.575 63.236 328.903 63.866 328.035 63.866C327.475 63.866 327.083 63.642 326.817 63.306C326.593 63.012 326.425 62.578 326.425 62.116L325.011 62.424C325.067 63.068 325.291 63.684 325.795 64.244C326.271 64.776 326.915 65.182 327.993 65.182C329.743 65.182 331.003 63.964 331.003 62.186C331.003 61.122 330.527 60.142 328.805 59.442L327.867 59.064C326.957 58.7 326.859 58.21 326.859 57.93C326.859 57.328 327.307 56.81 328.175 56.81C328.581 56.81 328.889 56.908 329.183 57.146C329.393 57.328 329.519 57.524 329.603 57.734L330.751 57.062ZM337.942 55.662H332.79V65H337.942V63.656H334.218V60.716H337.83V59.372H334.218V57.006H337.942V55.662ZM339.79 55.662V65H341.218V61.178H341.47L344.144 65H345.866L342.954 61.01C344.2 60.73 345.026 59.75 345.026 58.406C345.026 58 344.942 56.894 343.92 56.208C343.318 55.802 342.59 55.662 341.456 55.662H339.79ZM341.218 56.978H341.708C342.408 56.978 343.654 57.104 343.654 58.42C343.654 59.904 342.058 59.946 341.666 59.946H341.218V56.978ZM346.204 55.662L350.348 65.602L354.492 55.662H352.952L350.348 62.172L347.744 55.662H346.204ZM355.663 55.662V65H357.091V55.662H355.663ZM366.243 56.166C365.431 55.648 364.605 55.494 363.751 55.494C362.463 55.494 361.343 55.802 360.377 56.712C359.593 57.454 358.879 58.644 358.879 60.366C358.879 61.682 359.285 62.872 360.377 63.894C360.923 64.412 361.987 65.182 363.681 65.182C364.325 65.182 365.305 65.042 366.243 64.482V62.788C365.711 63.292 364.843 63.866 363.723 63.866C361.735 63.866 360.307 62.34 360.307 60.366C360.307 58.308 361.679 56.81 363.709 56.81C364.241 56.81 365.207 56.908 366.243 57.846V56.166ZM373.161 55.662H368.009V65H373.161V63.656H369.437V60.716H373.049V59.372H369.437V57.006H373.161V55.662ZM380.189 57.062C379.993 56.67 379.727 56.348 379.475 56.124C379.181 55.872 378.607 55.494 377.599 55.494C375.849 55.494 374.869 56.698 374.869 57.958C374.869 59.358 376.003 60.002 376.773 60.324L377.669 60.702C378.285 60.954 379.013 61.346 379.013 62.298C379.013 63.236 378.341 63.866 377.473 63.866C376.913 63.866 376.521 63.642 376.255 63.306C376.031 63.012 375.863 62.578 375.863 62.116L374.449 62.424C374.505 63.068 374.729 63.684 375.233 64.244C375.709 64.776 376.353 65.182 377.431 65.182C379.181 65.182 380.441 63.964 380.441 62.186C380.441 61.122 379.965 60.142 378.243 59.442L377.305 59.064C376.395 58.7 376.297 58.21 376.297 57.93C376.297 57.328 376.745 56.81 377.613 56.81C378.019 56.81 378.327 56.908 378.621 57.146C378.831 57.328 378.957 57.524 379.041 57.734L380.189 57.062Z" fill="white"/>
<path d="M108.306 42H113.036L99.448 11.642L85.172 42H89.902L93.041 35.077H105.296L108.306 42ZM94.847 30.949L99.276 21.231L103.533 30.949H94.847ZM115.885 10.653V42H120.099V10.653H115.885ZM129.631 39.893C131.523 42.215 134.06 42.559 135.049 42.559C139.349 42.559 143.821 38.947 143.821 32.841C143.821 27.079 139.779 23.424 135.006 23.424C133.2 23.424 131.179 24.026 129.631 25.875V23.897H125.417V51.847H129.631V39.893ZM134.49 27.208C137.543 27.208 139.521 29.788 139.521 33.013C139.521 36.152 137.543 38.775 134.49 38.775C131.824 38.775 129.373 36.84 129.373 33.056C129.373 29.1 131.824 27.208 134.49 27.208ZM148.219 42H152.433V33.271C152.433 30.949 152.691 29.573 153.293 28.713C153.852 27.896 154.97 27.208 156.389 27.208C157.464 27.208 158.281 27.638 158.754 28.154C159.571 29.057 159.571 30.218 159.571 31.293V42H163.785V30.906C163.785 29.616 163.742 27.509 162.624 25.875C162.108 25.144 160.603 23.424 157.292 23.424C156.217 23.424 154.239 23.596 152.433 25.445V10.653H148.219V42ZM182.375 26.004C180.655 23.768 178.333 23.424 177 23.424C172.227 23.424 168.185 27.036 168.185 32.927C168.185 37.915 171.367 42.559 176.957 42.559C178.247 42.559 180.526 42.258 182.375 40.108V42H186.589V23.897H182.375V26.004ZM177.516 27.208C180.182 27.208 182.633 29.1 182.633 33.056C182.633 36.84 180.182 38.775 177.516 38.775C174.463 38.775 172.485 36.152 172.485 33.013C172.485 29.788 174.463 27.208 177.516 27.208ZM192.535 13.319V42H199.931C203.93 42 207.069 41.613 210.423 39.248C214.207 36.582 216.185 32.454 216.185 27.681C216.185 22.908 214.164 18.737 210.681 16.114C207.499 13.749 204.016 13.319 200.017 13.319H192.535ZM198.125 18.135H199.845C201.737 18.135 204.575 18.307 206.897 20.027C209.176 21.747 210.423 24.671 210.423 27.681C210.423 30.734 209.133 33.658 206.854 35.292C204.36 37.098 201.264 37.184 199.845 37.184H198.125V18.135ZM237.251 13.319H221.341V42H237.251V37.184H226.931V29.358H236.821V24.542H226.931V18.135H237.251V13.319ZM242.673 13.319V42H248.263V30.476H248.951L256.605 42H263.571L254.627 29.917C256.003 29.659 257.035 29.186 257.766 28.67C260.002 27.165 261.12 24.714 261.12 21.919C261.12 19.769 260.475 17.318 258.282 15.469C256.949 14.351 254.928 13.319 250.972 13.319H242.673ZM248.263 17.877H249.94C250.972 17.877 255.358 17.92 255.358 22.177C255.358 26.391 250.929 26.52 249.854 26.52H248.263V17.877ZM286.887 42H292.907L280.91 13.319H276.524L264.183 42H270.246L272.783 35.98H284.35L286.887 42ZM274.546 31.422L278.631 21.102L282.716 31.422H274.546ZM306.463 13.319V42H319.277V37.872H310.849V13.319H306.463ZM335.856 26.004C334.136 23.768 331.814 23.424 330.481 23.424C325.708 23.424 321.666 27.036 321.666 32.927C321.666 37.915 324.848 42.559 330.438 42.559C331.728 42.559 334.007 42.258 335.856 40.108V42H340.07V23.897H335.856V26.004ZM330.997 27.208C333.663 27.208 336.114 29.1 336.114 33.056C336.114 36.84 333.663 38.775 330.997 38.775C327.944 38.775 325.966 36.152 325.966 33.013C325.966 29.788 327.944 27.208 330.997 27.208ZM349.628 10.653H345.414V42H349.628V40.108C351.477 42.258 353.756 42.559 355.046 42.559C360.636 42.559 363.818 37.915 363.818 32.927C363.818 27.036 359.776 23.424 355.003 23.424C353.67 23.424 351.348 23.768 349.628 26.004V10.653ZM354.487 27.208C357.54 27.208 359.518 29.788 359.518 33.013C359.518 36.152 357.54 38.775 354.487 38.775C351.821 38.775 349.37 36.84 349.37 33.056C349.37 29.1 351.821 27.208 354.487 27.208ZM379.267 26.606C378.622 25.445 377.805 24.757 377.203 24.37C376.171 23.682 375.139 23.424 373.849 23.424C371.613 23.424 370.237 24.284 369.42 25.144C368.474 26.133 367.915 27.552 367.915 29.014C367.915 30.175 368.259 31.164 369.205 32.067C369.893 32.755 370.882 33.228 371.699 33.615L373.247 34.346C373.935 34.647 374.537 34.948 375.053 35.464C375.44 35.894 375.612 36.324 375.612 36.84C375.612 37.356 375.354 37.915 375.01 38.259C374.623 38.646 373.935 38.861 373.29 38.861C372.301 38.861 371.699 38.431 371.441 38.173C371.054 37.829 370.667 37.055 370.452 36.453L367.012 38.087C367.442 39.377 368.302 40.624 369.334 41.398C370.624 42.387 372.086 42.559 373.247 42.559C375.139 42.559 376.902 42.086 378.321 40.538C379.31 39.463 379.912 38.044 379.912 36.41C379.912 35.163 379.568 34.045 378.579 33.056C377.891 32.325 376.988 31.852 376.042 31.379L373.892 30.304C372.989 29.831 372.731 29.745 372.473 29.573C372.086 29.315 371.871 29.014 371.871 28.541C371.871 28.154 372.043 27.81 372.258 27.595C372.516 27.337 372.946 27.122 373.548 27.122C374.881 27.122 375.698 27.982 376.128 28.67L379.267 26.606Z" fill="white"/>
</svg>
